# xmcd
#
# Track frame offsets:
#	150
#	16027
#	31090
#	45212
#	62437
#	79202
#	92960
#	108615
#	125270
#	141227
#	157980
#	174965
#	189155
#	205497
#
# Disc length: 3037 seconds
#
# Revision: 1
# Processed by: cddbd v1.5.2PL0 Copyright (c) Steve Scherf et al.
# Submitted via: audiograbber 1.83.01
#
DISCID=a70bdb0e
DTITLE=CLÁDIO RIOS - É O BOI, O CAVALO E O VAQUEIRO
DYEAR=1900
DGENRE=FORRÓ
TTITLE0=É O BOI, O CAVALO E O VAQUEIRO
TTITLE1=MULHER, MULHER
TTITLE2=VOCÊ QUER MATAR O VELHO
TTITLE3=VAQUEIRO E O MOTORISTA
TTITLE4=TÔ PAQUERANDO
TTITLE5=CONTAR ATÉ TRÊS
TTITLE6=VAI ACABAR NA CAMA
TTITLE7=ACELERADOR DO AMOR
TTITLE8=DO BRAÇO PRO LAÇO
TTITLE9=ÚLTIMA CARTA
TTITLE10=SONHOS EM PEDAÇOS
TTITLE11=VOCÊ É LOUCA
TTITLE12=LUA
TTITLE13=BOI DE CARRO
EXTD=
EXTT0=
EXTT1=
EXTT2=
EXTT3=
EXTT4=
EXTT5=
EXTT6=
EXTT7=
EXTT8=
EXTT9=
EXTT10=
EXTT11=
EXTT12=
EXTT13=
PLAYORDER=
